<svg xmlns="http://www.w3.org/2000/svg" viewBox="0 0 32 32"><title>82-Sushi Roll</title><g id="_82-Sushi_Roll" data-name="82-Sushi Roll"><path d="M29.73,15.62A3.58,3.58,0,0,0,31,13V7c0-2.85-3.87-5-9-5s-9,2.15-9,5v3.49A15.81,15.81,0,0,0,9,10c-5.13,0-9,2.15-9,5v6c0,2.85,3.87,5,9,5a14.88,14.88,0,0,0,5-.81c.17,2.76,4,4.81,9,4.81s9-2.15,9-5V19A4.11,4.11,0,0,0,29.73,15.62ZM22,4c4,0,7,1.58,7,3s-3,3-7,3-7-1.58-7-3S18,4,22,4Zm-7,6.21A12.73,12.73,0,0,0,22,12a12.73,12.73,0,0,0,7-1.79V13c0,.56-.5,1.16-1.35,1.68A15.27,15.27,0,0,0,23,14a15,15,0,0,0-5,.8c-.09-1.46-1.21-2.72-3-3.58ZM14,23a12.28,12.28,0,0,1-5,1c-4,0-7-1.58-7-3V18.21A12.73,12.73,0,0,0,9,20a15,15,0,0,0,5-.8ZM9,18c-4,0-7-1.58-7-3s3-3,7-3,7,1.58,7,3S13,18,9,18Zm21,7c0,1.42-3,3-7,3s-7-1.58-7-3V22.21A12.73,12.73,0,0,0,23,24a12.73,12.73,0,0,0,7-1.79Zm-7-3c-4,0-7-1.58-7-3s3-3,7-3,7,1.58,7,3S27,22,23,22Z"/><path d="M23,17c-1.74,0-3,.84-3,2s1.26,2,3,2,3-.84,3-2S24.74,17,23,17Z"/><path d="M22,9c1.74,0,3-.84,3-2s-1.26-2-3-2-3,.84-3,2S20.26,9,22,9Z"/><path d="M9,13c-1.74,0-3,.84-3,2s1.26,2,3,2,3-.84,3-2S10.74,13,9,13Z"/></g></svg>